<?xml version="1.0" encoding="utf-8"?>
<svg xmlns="http://www.w3.org/2000/svg" viewBox="468 48 744 504" width="744" height="504">
  <g class="logo" fill="none" stroke="#1e90ff" stroke-width="12" stroke-linecap="round" stroke-linejoin="round">

    <!-- Right M: mirror of W with same proportions and spacing -->
    <path d="M 960 60 A 240 240 0 1 1 960 540" fill="none" stroke="#ff8c00" stroke-width="12" stroke-linecap="round" stroke-linejoin="round"/>
    <path d="M 960 60 A 120 120 0 1 1 960 300" fill="none" stroke="#ff8c00" stroke-width="12" stroke-linecap="round" stroke-linejoin="round"/>
    <path d="M 860 100 C 1007.997 141.08 1036.292 211.417 960 300" fill="none" stroke="#ff8c00" stroke-width="12" stroke-linecap="round" stroke-linejoin="round"/>
    <path d="M 860 100 L 860 500" fill="none" stroke="#ff8c00" stroke-width="12" stroke-linecap="round" stroke-linejoin="round" style="stroke-width: 12;"/>

    <!-- Central O -->
    <circle cx="840" cy="300" r="240" fill="none" stroke="#228b22" stroke-width="12" stroke-linecap="round" stroke-linejoin="round"/>

    <!-- Left W: outer arc, inner arc, golden-style curve, vertical stroke -->
    <path d="M 720 540 A 240 240 0 1 1 720 60" fill="none" stroke="#1e90ff" stroke-width="12" stroke-linecap="round" stroke-linejoin="round"/>
    <path d="M 720 540 A 120 120 0 1 1 720 300" fill="none" stroke="#1e90ff" stroke-width="12" stroke-linecap="round" stroke-linejoin="round"/>
    <path d="M 820 500 C 672.003 458.92 643.708 388.583 720 300" fill="none" stroke="#1e90ff" stroke-width="12" stroke-linecap="round" stroke-linejoin="round"/>
    <path d="M 820 100 L 820 500" fill="none" stroke="#1e90ff" stroke-width="12" stroke-linecap="round" stroke-linejoin="round"/>

  </g>
</svg>